<?xml version="1.0" standalone="no"?>
<!DOCTYPE svg PUBLIC "-//W3C//DTD SVG 20010904//EN"
 "http://www.w3.org/TR/2001/REC-SVG-20010904/DTD/svg10.dtd">
<svg version="1.0" xmlns="http://www.w3.org/2000/svg"
 width="1072.000000pt" height="1072.000000pt" viewBox="0 0 1072.000000 1072.000000"
 preserveAspectRatio="xMidYMid meet">
<metadata>
Created by potrace 1.14, written by Peter Selinger 2001-2017
</metadata>
<g transform="translate(0.000000,1072.000000) scale(0.100000,-0.100000)"
fill="#000000" stroke="none">
<path d="M17 8603 c0 -637 1 -1161 2 -1165 1 -4 27 -38 58 -76 32 -38 73 -87
91 -110 19 -23 42 -50 52 -62 10 -12 33 -39 50 -60 17 -21 39 -48 48 -59 10
-10 31 -36 49 -58 17 -21 39 -48 50 -60 10 -11 34 -41 53 -64 19 -24 51 -62
70 -85 19 -23 51 -60 69 -84 19 -23 40 -48 45 -54 6 -6 27 -31 47 -56 20 -25
45 -55 55 -66 11 -12 33 -39 49 -60 17 -21 42 -51 58 -66 15 -16 27 -32 27
-36 0 -4 17 -25 38 -47 20 -22 49 -56 64 -77 15 -20 34 -42 41 -50 7 -7 39
-46 71 -85 32 -40 62 -73 67 -73 5 0 9 -7 9 -15 0 -7 8 -19 18 -24 9 -6 13
-11 9 -11 -4 0 2 -10 15 -22 13 -13 44 -48 68 -78 25 -30 48 -56 53 -58 4 -2
7 -8 7 -12 0 -5 10 -20 23 -33 12 -12 38 -43 57 -66 19 -24 40 -49 45 -55 6
-6 30 -36 55 -66 25 -30 54 -66 65 -79 11 -13 27 -32 35 -41 8 -8 27 -31 42
-50 15 -19 37 -47 50 -62 13 -15 33 -40 45 -55 12 -15 30 -37 40 -48 10 -11
47 -56 83 -100 79 -97 108 -132 138 -162 12 -13 22 -26 22 -29 0 -2 25 -35 56
-72 31 -37 75 -89 98 -116 23 -27 46 -54 51 -60 6 -6 39 -47 75 -91 35 -44 67
-82 70 -85 3 -3 35 -41 70 -85 35 -44 67 -82 70 -85 3 -3 25 -30 50 -60 25
-30 49 -60 55 -66 5 -6 21 -25 35 -43 14 -18 40 -48 58 -67 17 -18 32 -36 32
-39 0 -6 96 -121 142 -170 15 -16 31 -38 34 -47 3 -10 9 -18 13 -18 5 0 27
-24 49 -52 22 -29 51 -65 64 -80 13 -14 30 -35 38 -45 56 -68 107 -130 118
-141 7 -8 25 -30 40 -50 15 -20 36 -45 47 -54 11 -10 17 -17 13 -18 -3 0 6
-13 20 -28 41 -42 82 -91 82 -97 0 -3 14 -19 30 -35 17 -16 30 -34 30 -39 0
-5 4 -11 8 -13 4 -1 56 -61 115 -133 59 -71 121 -145 137 -163 17 -19 30 -36
30 -38 0 -2 8 -12 18 -22 9 -11 24 -28 32 -38 18 -23 161 -194 175 -210 6 -6
21 -26 35 -44 14 -18 33 -42 44 -54 10 -11 57 -68 104 -126 48 -58 101 -121
119 -140 18 -19 33 -38 33 -42 0 -4 10 -17 23 -30 12 -13 51 -59 87 -103 35
-44 69 -85 75 -91 6 -6 27 -31 46 -55 18 -23 43 -52 54 -64 11 -12 33 -39 50
-60 16 -22 36 -47 45 -56 8 -9 31 -36 50 -60 19 -24 64 -77 98 -119 35 -41 71
-84 80 -95 62 -75 109 -132 122 -149 8 -10 22 -26 30 -35 8 -9 33 -39 54 -66
22 -28 51 -61 64 -75 14 -14 31 -35 39 -47 20 -29 25 -29 46 5 9 15 31 43 49
63 18 20 45 52 60 71 16 19 43 51 60 70 18 20 47 53 65 74 18 22 42 51 55 66
13 14 32 37 42 50 11 12 31 37 45 53 14 17 46 55 71 85 25 29 52 60 60 69 8 9
35 41 60 71 25 30 49 60 55 66 5 6 30 35 55 65 25 29 54 62 65 74 11 12 33 39
50 61 16 21 40 47 53 58 13 10 21 20 19 23 -3 2 7 16 22 32 14 15 46 51 71 81
25 29 63 74 85 99 22 26 58 69 80 95 22 27 48 58 58 70 10 11 37 43 60 70 55
65 97 114 122 141 11 12 32 37 47 57 15 20 33 42 40 50 7 7 36 40 63 73 54 64
101 119 125 145 8 9 33 38 55 65 22 28 47 57 55 65 9 9 29 34 45 55 17 22 35
45 42 50 6 6 30 33 53 60 23 28 59 70 80 95 21 25 69 81 107 125 37 44 71 82
75 83 5 2 8 8 8 12 0 5 21 32 48 60 26 29 51 58 55 66 5 8 20 27 35 43 15 16
41 46 59 67 18 21 42 51 55 65 13 15 43 51 68 80 25 29 53 61 63 71 9 10 17
21 17 24 0 4 8 14 18 23 9 9 39 43 67 76 27 33 54 65 60 71 5 6 28 33 50 59
22 27 46 54 53 61 6 7 12 18 12 24 0 6 4 8 10 5 6 -3 10 -3 10 2 0 4 22 33 48
64 26 30 65 77 87 104 22 26 45 53 50 59 6 6 33 38 60 71 28 33 60 71 72 85
12 14 31 36 43 50 12 14 40 47 63 75 23 27 49 56 57 65 8 8 25 28 38 44 25 33
99 121 122 145 8 9 35 41 60 71 25 30 52 62 60 71 8 9 29 33 46 55 18 21 49
59 70 83 22 24 47 53 57 65 59 72 94 112 110 128 9 10 17 20 17 23 0 2 12 18
28 34 15 16 34 38 42 47 202 241 305 361 316 370 8 6 14 16 14 23 0 6 4 11 8
11 4 0 24 21 45 48 20 26 49 61 64 77 16 17 46 52 68 79 22 27 49 59 60 71 11
12 38 44 60 70 22 26 45 52 50 59 6 6 32 38 60 71 27 33 54 65 60 71 5 6 28
32 50 58 22 27 49 58 60 71 11 12 34 40 51 61 18 22 42 51 55 65 13 14 42 47
64 75 21 27 46 56 55 64 9 8 23 24 31 36 8 12 32 41 54 66 22 25 56 64 75 88
l35 43 1 1193 0 1194 -5295 0 -5296 0 2 -1157z"/>
</g>
</svg>
