<svg width="67" height="55" viewBox="0 0 67 55" fill="none" xmlns="http://www.w3.org/2000/svg">
<path d="M0.803955 0.49745L32.9951 38.2042L65.0859 0.696431L0.803955 0.49745Z" fill="#23A9E1"/>
<path d="M25.2734 14.625H42.6225C41.3188 13.829 38.21 10.0484 36.6055 11.4413C36.5052 11.5408 31.6916 5.77035 28.5828 8.55607C25.8751 11.0433 24.5714 8.2576 21.5629 10.1479C17.9527 12.5357 23.5686 13.829 25.2734 14.625ZM52.0492 11.1428L42.2214 11.2423C46.1324 6.76525 47.8373 7.2627 52.0492 11.1428Z" fill="white"/>
<path d="M61.8768 3.58164V1.19388H63.9827L61.8768 3.58164ZM12.5371 12.9337C12.6374 13.0332 14.9439 10.5459 18.6544 8.0587C22.0641 5.77043 27.2788 3.18368 33.0953 3.18368C38.9118 3.18368 44.2268 5.86992 47.6365 8.15819C51.347 10.5459 53.6535 12.9337 53.7538 13.0332L51.2467 16.0179C46.7339 16.6148 43.5248 19.898 39.1123 19.2016C36.9061 18.8036 36.8058 17.6097 36.2041 16.3164C35.7027 15.3215 34.9004 15.5205 33.8976 15.1225C32.995 14.7245 32.3933 14.0281 30.4879 14.4261C28.8834 14.824 28.6828 17.3113 26.5769 17.2118C25.4737 17.1123 25.3734 15.6199 23.7689 13.6301C19.6573 8.75513 15.8465 9.45156 13.2391 13.9286L32.8947 37.1098L12.5371 12.9337ZM4.11328 1.19388V3.08419L2.50874 1.19388H4.11328ZM58.1663 1.19388H61.3753V4.17858L58.1663 7.95921V1.19388ZM54.0546 12.5358V1.19388H57.5646V8.55615L54.0546 12.5358C54.0546 12.5358 54.1549 12.5358 54.0546 12.5358ZM53.5532 2.18878V12.0383C52.4501 10.9439 51.2467 9.94901 49.943 9.0536L53.5532 2.18878ZM49.4416 1.89031V8.65564C48.9401 8.35717 48.539 7.95921 47.9373 7.66074C47.2353 7.26278 46.5333 6.76533 45.7311 6.36737L49.4416 1.89031ZM45.0291 1.69133V5.96941C44.0262 5.47195 42.9231 4.9745 41.9203 4.47705L45.0291 1.69133ZM45.6308 1.19388H49.3413L45.6308 5.77043V1.19388ZM49.943 1.19388H53.5532L49.943 8.25768V1.19388ZM41.118 1.19388H45.0291L41.5191 4.27807C41.4189 4.27807 41.3186 4.17858 41.2183 4.17858L41.118 1.19388ZM40.6166 1.59184V3.9796C39.6138 3.58164 38.6109 3.28317 37.5078 3.08419L40.6166 1.59184ZM36.4047 1.59184V2.88521C35.7027 2.78572 35.0007 2.68623 34.1984 2.58674L36.4047 1.59184ZM29.5854 1.59184L31.7916 2.58674C30.9893 2.58674 30.2874 2.68623 29.5854 2.88521V1.59184ZM25.4737 1.59184L28.5825 3.08419C27.4794 3.28317 26.4766 3.58164 25.4737 3.9796V1.59184ZM29.084 2.78572L25.7746 1.19388H29.084V2.78572ZM32.5939 2.38776L29.7859 1.09439H32.5939V2.38776ZM33.2959 1.19388H36.2041L33.2959 2.48725V1.19388ZM37.0064 1.19388H40.2155L37.0064 2.78572V1.19388ZM24.5712 4.27807L21.0612 1.19388H24.9723V4.17858L24.5712 4.27807ZM20.961 1.69133L24.0698 4.37756C22.9666 4.77552 21.9638 5.27297 20.961 5.86992V1.69133ZM16.6488 1.89031L20.259 6.36737C18.9553 7.0638 17.7519 7.85972 16.6488 8.75513V1.89031ZM12.4368 2.18878L16.0471 9.15309C14.7434 10.148 13.54 11.1429 12.4368 12.3368V2.18878ZM16.1473 8.15819L12.5371 1.09439H16.1473V8.15819ZM20.4595 5.67093L16.749 1.09439H20.4595V5.67093ZM7.82378 7.46176L4.6147 3.68113V1.19388H7.82378V7.46176ZM8.42548 1.19388H11.9354V12.3368L8.42548 8.15819V1.19388ZM33.2959 0H0.101929V14.5256L32.995 54.2221L33.1956 53.9236L66.2892 14.9235V0H33.2959Z" fill="#491213"/>
<path d="M30.3877 45.7655L32.9951 41.5869L35.6025 45.7655L32.9951 49.9441L30.3877 45.7655Z" fill="#23A9E1"/>
<path d="M38.4106 30.4439C35.001 28.4541 35.8033 26.9618 38.6112 25.5689C40.1155 24.8725 43.4248 22.1862 44.7285 23.0817L38.4106 30.4439ZM36.1041 32.9312C34.0984 32.8317 31.7919 32.5332 29.7862 33.0307C30.9896 33.3291 33.9981 34.2245 31.1902 34.921C32.193 36.3138 33.7976 36.2144 34.8004 35.0205C34.3993 34.8215 34.0984 34.523 33.7976 34.324C34.9007 34.0256 35.9035 33.4286 36.1041 32.9312ZM37.3075 31.3393C36.405 30.5434 35.4021 30.5434 34.5998 31.3393C33.3964 29.25 29.1845 29.9465 27.1788 29.648C28.282 32.2347 36.8061 32.7322 37.3075 31.3393ZM30.4882 29.1506C28.8837 28.6531 23.6689 28.7526 27.0786 27.3597C28.1817 26.9618 33.7976 27.4592 30.4882 29.1506ZM32.4939 26.1659C31.9925 25.0715 32.895 23.7781 34.1987 24.773C35.4021 25.5689 33.597 26.7628 32.4939 26.1659ZM29.5857 26.2653C27.2791 26.9618 24.2706 25.4694 27.9811 24.773C30.2876 24.2755 32.6945 25.2704 29.5857 26.2653C29.4854 26.2653 29.6859 26.2653 29.5857 26.2653ZM26.9783 20.097C26.4769 21.6888 25.474 21.9873 25.5743 20.097C25.6746 17.8087 27.1788 18.4056 28.7834 17.5102C30.0871 16.8138 30.7891 14.1276 33.0956 15.7194C34.0984 16.4158 35.3018 15.8189 35.6027 16.9133C35.6027 16.8138 32.6945 23.5791 34.299 23.5791C31.0899 23.5791 32.4939 19.7985 33.6973 17.2117C32.4939 17.8087 30.5885 21.4898 32.193 22.1862C31.3908 23.2806 28.7834 24.773 27.4797 23.6786C26.3766 22.6837 26.9783 21.3903 26.9783 20.097ZM22.9669 22.8827C17.351 22.8827 21.1618 14.3265 23.0672 14.824C25.2735 15.5204 24.9726 22.9822 22.9669 22.8827ZM16.7493 14.7245C14.1419 14.625 15.2451 12.1377 17.0502 11.6403C18.755 11.1428 22.2649 12.7347 23.4683 13.8291C21.6632 14.426 19.3567 14.3265 17.351 14.426C17.1505 12.4362 16.649 13.1326 16.7493 14.7245Z" fill="#DC6243"/>
<path d="M36.0039 25.6685C33.0957 22.6838 40.3161 22.9823 41.5195 21.8879C42.3218 22.1864 48.5394 16.5155 50.0437 16.9134C48.9406 18.2068 46.634 22.1864 45.0295 22.1864C43.7258 22.1864 42.4221 21.9874 41.4193 22.8828C39.915 24.2757 37.5082 24.9721 36.0039 25.6685Z" fill="#F49774"/>
<path d="M36.906 22.0868C35.3015 22.9822 33.7972 19.5996 36.6052 19.898C38.4103 20.097 40.3157 19.6991 42.0205 19.9975C40.7168 21.4899 38.9117 22.2858 36.906 22.0868Z" fill="#F4B1A4"/>
<path d="M15.2452 20.7935C15.546 21.1915 15.8469 21.5894 15.7466 22.1864C15.7466 22.5843 15.1449 23.1813 15.546 23.3803L17.0503 21.5894C16.6492 21.4899 13.5404 17.8088 13.5404 17.4108L11.4344 18.5052C11.5347 18.9032 12.2367 18.5052 12.6378 18.5052C13.1392 18.5052 13.5404 18.9032 13.9415 19.2017C12.8384 20.0971 10.1307 22.4848 9.82987 22.4848C9.72958 22.4848 9.12788 22.0869 9.12788 22.4848C9.12788 22.6838 9.72958 23.1813 9.82987 23.2808L11.2338 24.9721C11.635 24.7731 11.1336 24.4746 11.3341 24.1762C11.4344 23.9772 14.5432 21.4899 15.2452 20.7935ZM11.8355 16.3165C12.1364 16.217 12.2367 16.6149 12.4372 16.3165L10.8327 14.4261C10.6321 14.1277 10.3313 13.8292 10.3313 14.4261C10.4316 14.8241 6.31993 18.1073 6.11936 18.2068C5.81851 18.3063 5.61794 17.9083 5.41738 18.3063C5.91879 18.9032 6.31993 19.4007 6.82135 19.9976C7.02192 20.1966 7.1222 20.3956 7.32277 20.5945C7.52334 20.7935 7.42305 20.1966 7.42305 20.1966C7.32277 19.8981 7.72391 19.5996 8.02476 19.4007C9.0276 18.4057 11.5347 16.3165 11.8355 16.3165ZM6.11936 15.7195C5.01624 16.018 3.71255 15.62 3.4117 14.4261C3.01056 13.2323 3.81283 12.0384 4.71539 11.342C5.61794 10.6455 7.02192 10.745 7.52334 11.8394C7.72391 12.3369 7.62362 12.9338 7.42305 13.4312C7.32277 13.7297 7.02192 14.0282 7.42305 14.2272C8.02475 13.5307 8.52617 12.8343 9.12788 12.1379C8.42589 11.7399 8.12504 11.0435 7.62362 10.4465C7.02192 9.75011 6.31993 9.05368 5.31709 8.95419C3.4117 8.65572 1.70688 10.6455 1.50631 12.3369C1.40602 13.2323 1.70688 14.1277 2.30858 14.9236C2.81 15.5205 3.51198 16.018 3.91312 16.7144C4.11369 16.8139 5.71823 16.018 6.01908 15.9185C6.21965 15.9185 6.11936 15.819 6.11936 15.7195C6.11936 15.7195 5.61794 15.9185 6.11936 15.7195ZM31.6917 39.1992C30.9898 38.7017 29.0844 36.2145 28.6832 35.717L28.4827 35.4186L28.2821 35.518C28.1818 35.6175 28.3824 35.916 28.2821 36.115C27.7807 36.9109 24.5716 39.2987 24.371 39.4976C23.9699 39.6966 23.5687 39.3982 23.3682 39.6966C23.8696 40.2936 25.1733 41.9849 25.3739 41.9849C25.6747 41.9849 25.4741 41.4874 25.4741 41.388C25.5744 41.189 27.179 39.7961 27.7807 39.2987C27.9812 39.0997 28.1818 39.5971 28.3824 39.7961C28.5829 40.0946 28.6832 40.4926 28.5829 40.791C28.4827 40.99 28.0815 41.388 28.3824 41.5869C28.7835 41.0895 29.8866 39.7961 30.0872 39.5971C30.2878 39.3982 29.6861 39.5971 29.7863 39.4976C29.5858 39.5971 29.2849 39.6966 29.0844 39.4976C28.9841 39.4976 28.3824 38.8012 28.4827 38.7017C28.7835 38.5027 29.0844 38.1048 29.4855 38.0053C30.0872 37.9058 30.4883 39.0002 30.5886 39.3982C30.6889 39.7961 30.6889 40.1941 30.4883 40.4925C30.3881 40.791 30.1875 40.99 30.4883 41.0895L31.8923 39.1992C31.8923 39.2987 31.792 39.2987 31.6917 39.1992C31.792 39.2987 31.5915 39.1992 31.6917 39.1992ZM22.4656 30.3446C21.7636 30.3446 21.0617 30.643 20.4599 31.1405C19.056 32.3344 18.8554 34.4237 19.9585 35.916C21.2622 37.6073 23.3682 37.8063 25.073 36.6124C26.477 35.4186 26.6775 33.3293 25.5744 31.8369C24.7722 30.842 23.5687 30.3446 22.4656 30.3446ZM23.669 31.7374C24.5716 31.6379 25.1733 32.5333 24.7722 33.5282C24.371 34.5231 23.3682 35.518 22.3653 35.916C21.1619 36.4135 20.3597 35.4186 20.8611 34.2247C21.2622 33.2298 22.2651 32.2349 23.2679 31.8369C23.3682 31.8369 23.4685 31.7374 23.669 31.7374ZM20.8611 27.1609C21.1619 27.1609 21.4628 27.5588 21.6634 27.1609L20.2594 25.4695C19.8582 25.6685 20.2594 25.8675 20.1591 26.0665C19.9585 26.365 18.4543 26.5639 18.0531 26.6634C18.1534 26.2655 18.6548 24.9721 18.8554 24.8726C19.2565 24.5741 19.4571 25.1711 19.6577 24.7731L17.8526 22.6838C17.652 22.4848 17.4514 21.9874 17.2509 22.2859C17.2509 22.2859 17.2509 23.2808 17.1506 23.3803C17.0503 23.5792 16.5489 25.768 15.9472 26.2655C15.6463 26.5639 14.4429 27.5588 14.1421 27.6583C13.8412 27.7578 13.6407 27.2604 13.3398 27.6583L14.9443 29.5486C15.0446 29.6481 15.3455 30.1456 15.4458 30.1456C15.7466 30.2451 15.4458 29.5486 15.546 29.4491C15.6463 29.1507 17.1506 27.6583 17.8526 27.5588C18.7551 27.3599 19.8582 27.0614 20.8611 27.1609C20.6605 27.1609 21.0617 27.1609 20.8611 27.1609ZM45.1298 33.8267C45.2301 34.2247 45.3303 34.7221 45.2301 35.1201C45.1298 35.717 44.6284 37.0104 43.8261 36.6124C43.0238 36.2145 42.4221 35.518 41.7201 34.9211C42.2215 34.3242 42.723 33.8267 43.6255 34.1252C43.8261 34.2247 44.0266 34.1252 43.8261 33.9262C43.5252 33.7272 41.8204 32.6328 41.7201 32.7323C41.5196 32.9313 42.021 33.3293 41.8204 33.7272C41.7201 34.0257 41.4193 34.2247 41.2187 34.5231C40.7173 34.1252 40.0153 33.7272 40.5167 33.0308C40.9179 32.6328 41.319 32.2349 41.9207 32.1354C42.3218 32.0359 43.1241 32.4339 43.2244 32.0359C42.5224 31.7374 41.8204 31.3395 41.1184 31.041C41.2187 31.5384 38.9122 33.9262 38.4108 34.5231C38.3105 34.6226 38.0096 34.9211 38.0096 35.0206C38.0096 35.3191 38.4108 35.1201 38.4108 35.1201C38.7116 35.0206 42.8232 38.4033 42.9235 38.7017C43.0238 38.9007 42.8232 39.0997 42.9235 39.1992C42.9235 39.1992 43.0238 39.2987 43.1241 39.2987C43.4249 39.0002 46.0323 35.4186 46.634 35.3191C46.1326 34.5231 45.6312 33.7272 45.1298 32.9313C44.7286 33.1303 45.0295 33.6277 45.1298 33.8267ZM41.1184 38.2043C39.8147 37.3089 37.5082 39.0002 37.1071 39.1992C36.4051 39.4976 35.9037 38.8012 36.3048 38.2043C36.6056 37.7068 37.2073 37.4084 37.8091 37.4084C38.0096 37.4084 38.7116 37.5078 38.7116 37.4084C38.8119 37.3089 38.8119 37.3089 38.7116 37.2094C38.1099 36.8114 37.6085 36.4135 37.0068 36.115C36.9065 36.8114 36.1042 37.2094 35.7031 37.7068C35.2017 38.3038 34.7003 39.0002 34.7003 39.6966C34.7003 40.3931 35.1014 41.0895 35.8034 41.388C36.5054 41.7859 37.3076 41.4875 38.0096 41.0895C38.4108 40.791 38.8119 40.4925 39.213 40.2936C39.8147 39.9951 40.7173 40.2936 40.5167 41.0895C40.3162 41.7859 39.6142 42.3829 38.9122 42.5818C38.511 42.6813 38.1099 42.6813 37.7088 42.4824C37.4079 42.3829 37.1071 41.9849 36.9065 42.3829L39.213 43.9747C39.3133 43.4773 39.5139 43.2783 39.915 42.9798C40.4164 42.5818 40.8176 42.0844 41.2187 41.5869C42.021 40.6915 42.3218 39.0997 41.1184 38.2043ZM58.7684 10.2476C58.7684 10.3471 58.7684 10.3471 58.7684 10.2476L57.8658 11.2425L57.0636 12.2374C56.863 12.4363 56.7627 12.5358 57.0636 12.7348C57.565 12.4363 60.5735 17.5103 60.3729 18.2068C59.8715 18.4057 55.8601 14.9236 55.7599 14.7246C55.7599 14.6251 55.9604 14.0282 55.6596 14.1277C55.5593 14.1277 55.1582 14.7246 55.0579 14.8241L54.4562 15.5205C54.6567 15.819 54.757 15.5205 55.0579 15.5205C55.2584 15.62 56.2613 16.4159 56.5621 16.6149C56.0607 16.6149 54.8573 16.7144 54.6567 16.7144C54.055 16.8139 54.3559 16.3165 53.9547 16.1175L52.4505 17.9083L51.5479 18.9032C51.5479 18.9032 51.5479 18.9032 51.5479 19.0027C51.7485 19.2017 51.6482 19.1022 51.9491 19.0027C52.2499 18.9032 56.2613 22.1864 56.3616 22.3854C56.5621 22.6838 56.2613 22.9823 56.6624 23.1813L57.8658 21.7884C57.9661 21.6889 57.9661 21.6889 57.8658 21.6889C57.565 21.4899 57.565 21.7884 57.1638 21.7884C56.863 21.6889 54.2556 19.5996 53.353 18.8037L58.6681 18.6047C58.8687 18.6047 59.3701 19.2017 59.3701 19.4007C59.2698 19.5996 59.0692 19.7986 59.3701 19.8981C59.6709 19.5001 59.9718 19.2017 60.2726 18.8037L60.3729 18.6047C60.4732 18.6047 60.4732 18.5052 60.4732 18.4057L60.5735 18.3063C60.8743 18.0078 61.7769 17.0129 61.6766 16.9134C61.3758 16.6149 61.2755 17.2119 60.8743 16.9134C60.6738 16.7144 60.0721 15.7195 59.9718 15.5205C59.7712 15.2221 60.3729 14.9236 60.5735 14.8241C61.0749 14.5256 62.6794 14.0282 62.88 15.0231C62.88 15.2221 62.6794 15.421 62.7797 15.5205C62.7797 15.5205 62.88 15.7195 62.9803 15.62L65.0863 13.0333C64.986 12.9338 64.986 12.9338 64.8857 12.8343C64.3843 13.3318 59.3701 11.342 59.0692 11.0435C58.9689 10.8445 58.9689 10.2476 58.7684 10.2476ZM58.5678 12.8343C59.3701 13.1328 60.0721 13.4312 60.8743 13.8292C60.6738 13.9287 60.4732 14.0282 60.2726 14.1277C60.0721 14.2272 59.8715 14.4261 59.6709 14.6251L58.5678 12.8343ZM51.9491 20.495C50.8459 20.3956 49.7428 20.893 48.9406 21.7884C47.7371 23.2808 47.8374 25.4695 49.3417 26.6634C50.8459 27.8573 53.0522 27.5588 54.2556 26.166C55.459 24.6736 55.3587 22.4848 53.8545 21.291C53.353 20.893 52.6511 20.5945 51.9491 20.495ZM50.5451 22.0869C51.1468 22.0869 51.8488 22.4848 52.2499 22.7833C53.0522 23.2808 54.4562 24.4746 53.7542 25.4695C53.7542 25.3701 53.8545 25.3701 53.6539 25.569C52.8516 26.365 51.4477 25.6685 50.7457 25.0716C50.0437 24.5741 48.74 23.3803 49.5423 22.3854C49.8431 22.1864 50.144 22.0869 50.5451 22.0869ZM47.4363 26.365C46.2329 26.2655 45.0295 26.8624 44.1269 27.9568C43.5252 28.7527 42.8232 29.4491 42.2215 30.2451C42.4221 30.5435 42.723 30.1456 43.0238 30.3446C43.3247 30.5435 47.1355 33.6277 47.1355 33.8267C47.2357 34.1252 46.9349 34.2247 47.2357 34.4237C47.336 34.5231 50.144 31.041 50.4448 30.444C50.8459 29.3497 50.5451 28.0563 49.6425 27.2604C49.7428 27.3599 49.8431 27.3599 49.6425 27.2604C48.8403 26.6634 48.1383 26.365 47.4363 26.365ZM46.3332 27.9568C46.4335 27.9568 46.5337 27.9568 46.634 27.9568C48.038 28.3548 50.0437 30.0461 48.74 31.5384C48.5394 31.7374 48.74 31.5384 48.3389 31.9364C48.1383 32.1354 44.1269 28.9517 44.3275 28.7527C44.7286 28.2553 45.6312 27.8573 46.3332 27.9568Z" fill="white"/>
</svg>
