<svg xmlns="http://www.w3.org/2000/svg"><style>:root svg:not(:target){display:none}</style><svg viewBox="0 0 20 20" fill="none" id="arrow-down"><path fill-rule="evenodd" clip-rule="evenodd" d="M4.22 7.34a.75.75 0 0 1 1.06 0L10 12.06l4.72-4.72a.75.75 0 1 1 1.06 1.07l-5.25 5.25a.75.75 0 0 1-1.06 0L4.22 8.4a.75.75 0 0 1 0-1.07Z" fill="black"></path></svg><svg viewBox="0 0 8 11" fill="none" id="arrow"><path d="M6.92 4.97 2.17.72c-.25-.25-.75-.25-1.13 0-.37.25-.25.75 0 1l4.13 3.75-4 3.75a.76.76 0 0 0 0 1c0 .12.37.25.5.25.12 0 .37-.13.5-.25l4.75-4.25a.59.59 0 0 0 0-1Z" fill="white"></path></svg><svg viewBox="0 0 13 11" fill="none" id="check"><path d="M11 .5 4.5 7.9 1.1 4 0 5.2l4.5 5.2 7.7-8.6L11 .5Z" fill="#3F5E72"></path></svg><svg viewBox="0 0 20 20" fill="none" id="cross"><path d="M17 4.3 15.7 3 10 8.7 4.3 3 3 4.3 8.7 10 3 15.7 4.3 17l5.7-5.7 5.7 5.7 1.3-1.3-5.7-5.7L17 4.3Z" fill="black"></path></svg><svg viewBox="0 0 21 20" fill="none" id="date"><path d="M8.14 12c.3 0 .5-.2.5-.5s-.2-.5-.5-.5-.5.2-.5.5.2.5.5.5Z" fill="black"></path><path d="M17.4 4h-2V2h-1v2h-8V2h-1v2h-2c-.6 0-1 .4-1 1v11c0 .5.4 1 1 1h14c.5 0 1-.5 1-1V5c0-.6-.5-1-1-1Zm0 12h-14V9h14v7Zm-14-8V5h2v2h1V5h8v2h1V5h2v3h-14Z" fill="black"></path><path d="M10.4 12c.3 0 .5-.2.5-.5s-.2-.5-.5-.5-.5.2-.5.5.2.5.5.5Z" fill="black"></path><path d="M12.64 12c.3 0 .5-.2.5-.5s-.2-.5-.5-.5-.5.2-.5.5.2.5.5.5Z" fill="black"></path><path d="M8.14 13c-.3 0-.5.2-.5.5s.2.5.5.5.5-.2.5-.5-.2-.5-.5-.5Z" fill="black"></path><path d="M5.9 12c.3 0 .5-.2.5-.5s-.2-.5-.5-.5-.5.2-.5.5.2.5.5.5Z" fill="black"></path><path d="M5.9 13c-.3 0-.5.2-.5.5s.2.5.5.5.5-.2.5-.5-.2-.5-.5-.5Z" fill="black"></path><path d="M10.4 13c-.3 0-.5.2-.5.5s.2.5.5.5.5-.2.5-.5-.2-.5-.5-.5Z" fill="black"></path><path d="M12.64 13c-.3 0-.5.2-.5.5s.2.5.5.5.5-.2.5-.5-.2-.5-.5-.5Z" fill="black"></path><path d="M14.9 12c.3 0 .5-.2.5-.5s-.2-.5-.5-.5-.5.2-.5.5.2.5.5.5Z" fill="black"></path><path d="M14.9 13c-.3 0-.5.2-.5.5s.2.5.5.5.5-.2.5-.5-.2-.5-.5-.5Z" fill="black"></path></svg><svg viewBox="0 0 1200 57" fill="white" id="decor"><path d="M0 57V0l250 24V0l350 57L950 0v24l250-24v57H0Z"></path></svg><svg viewBox="0 0 76 76" id="eat"><path d="M71.1 49.7h-66C2.8 49.7 1 51.6 1 54v3.5c0 2.4 1.9 4.3 4.1 4.3H6v1.1C6 68.4 10.3 73 15.6 73h44.7c5.3 0 9.6-4.5 9.6-10.1v-1.1h.9c2.3 0 4.1-1.9 4.1-4.3V54c.3-2.3-1.6-4.3-3.8-4.3zm-3.9 13.2c0 3.9-3 7-6.7 7H15.6c-3.7 0-6.7-3.2-6.7-7v-1.1h58.2l.1 1.1zm5.1-5.4c0 .7-.6 1.3-1.2 1.3H5c-.7 0-1.2-.6-1.2-1.3V54c0-.7.6-1.3 1.2-1.3h66c.7 0 1.2.6 1.2 1.3.1 0 .1 3.5.1 3.5z"></path><path d="m16.6 41.4 5.4 4.1 5.3-4.1 5.3 4.1 5.3-4.1 5.4 4.1 5.3-4.1 5.3 4.1 5.4-4.1 5.3 4.1 6.2-4.7-1.7-2.5-4.5 3.4-5.3-4.1-5.4 4.1-5.3-4.1-5.3 4.1-5.4-4.1-5.3 4.1-5.3-4.1-5.3 4.1-5.4-4.1-5.3 4.1-4.5-3.4-1.7 2.5 6.2 4.7 5.3-4.1z"></path><path d="M9 34.5h61c0-.6.1-1.2.1-1.9v-1.2C69.4 15.7 55.3 3 38.1 3 20.7 3 6.7 15.7 6 31.5v1.2c0 .6 0 1.2.1 1.8H9zM38.1 6c15.6 0 28.5 11.3 29.1 25.5H9C9.6 17.4 22.5 6 38.1 6z"></path><path d="M38.1 20.3c1.1 0 1.9-.9 1.9-2s-.9-2-1.9-2c-1.1 0-1.9.9-1.9 2s.8 2 1.9 2z"></path><path d="M30.3 15.2c1.1 0 1.9-.9 1.9-2s-.9-2-1.9-2-1.9.9-1.9 2 .8 2 1.9 2z"></path><path d="M45.8 15.2c1.1 0 1.9-.9 1.9-2s-.9-2-1.9-2c-1.1 0-1.9.9-1.9 2s.9 2 1.9 2z"></path></svg><svg viewBox="0 0 20 20" id="heart"><path d="M9.9 19a.9.9 0 0 1-.8-.4c-5.4-6.1-6.7-7.5-7-7.9A5.4 5.4 0 0 1 6.5 2C7.8 2 9 2.5 10 3.3a5.46 5.46 0 0 1 9 4.1c0 1.3-.5 2.5-1.3 3.4l-7 7.9c-.2.2-.4.3-.8.3Zm-6-9.5c.3.4 3.5 4 6.1 6.9l6.2-7c.5-.5.7-1.2.7-2 0-1.8-1.5-3.3-3.3-3.3-1 0-2 .5-2.7 1.3-.3.3-.6.4-.9.4-.3 0-.6-.2-.8-.4-.7-.8-1.7-1.3-2.7-1.3-1.8 0-3.3 1.5-3.3 3.3-.1.9.3 1.6.7 2.1-.1 0-.1 0 0 0Z"></path></svg><svg viewBox="0 0 13 15" fill="none" id="homepage"><path d="m6.5.5-6 5.8v6.2h12V6.3L6.5.5Zm5 11h-10V6.7l5-4.8 5 4.8v4.8Z" fill="white"></path><path d="M4.5 10.5h1V8h2v2.5h1V7h-4v3.5Z" fill="white"></path></svg><svg viewBox="0 0 76 76" id="housing"><path d="M30.1 67h16.1V43.2H30.1V67zM33 46.1h10.1v18H33v-18z"></path><path d="m73.4 41.3 2.1-2.1-9.9-9.9V2h-14v13.6L37.9 2 .5 39.2l2.1 2.1 7.8-7.8v37.6h-4V74h64.2v-2.9h-5.1V33.5l7.9 7.8zM62.5 71.1H13.4V30.5L37.9 6.1l24.6 24.4v40.6zm0-44.7-7.9-7.9V4.9h7.9v21.5z"></path><path d="M30.3 29.1c0 4.3 3.5 7.7 7.7 7.7 4.3 0 7.8-3.5 7.8-7.7 0-4.3-3.5-7.7-7.8-7.7a7.7 7.7 0 0 0-7.7 7.7zm7.9-5c2.7 0 5 2.2 5 4.9s-2.2 4.9-5 4.9c-2.7 0-5-2.2-5-4.9s2.1-4.9 5-4.9z"></path><path d="M20.5 43.2h-3v3.9h3v-3.9z"></path><path d="M26.4 43.2h-3v3.9h3v-3.9z"></path><path d="M20.5 49.2h-3v3.9h3v-3.9z"></path><path d="M26.4 49.2h-3v3.9h3v-3.9z"></path><path d="M52.5 43.2h-3v3.9h3v-3.9z"></path><path d="M58.4 43.2h-3v3.9h3v-3.9z"></path><path d="M52.5 49.2h-3v3.9h3v-3.9z"></path><path d="M58.4 49.2h-3v3.9h3v-3.9z"></path></svg><svg viewBox="0 0 21 20" fill="none" id="info"><path fill-rule="evenodd" clip-rule="evenodd" d="M9.4 4h2v2h-2V4Zm2 12h-2V7h2v9Z" fill="black"></path></svg><svg viewBox="0 0 20 20" id="search"><path d="m19.5 18-3.7-3.67a8 8 0 0 0 1.7-4.87 8 8 0 0 0-8-7.96c-4.4 0-8 3.68-8 8.06a8 8 0 0 0 12.9 6.26l3.7 3.68 1.4-1.5Zm-10-2.48a6 6 0 0 1-6-5.96 6 6 0 0 1 12 0 6 6 0 0 1-6 5.96Z"></path></svg><svg viewBox="0 0 48 41" fill="none" id="social-telegram"><path d="M31.79 12.96 15.84 19.1c-1.09.44-1.08 1.05-.2 1.32l4.1 1.28 9.47-5.98c.44-.27.85-.13.52.17l-7.68 6.93-.28 4.22c.41 0 .6-.2.83-.41l1.99-1.94 4.13 3.06c.77.42 1.31.2 1.5-.7l2.72-12.8c.28-1.12-.43-1.62-1.15-1.3Z" fill="#83B3D3"></path></svg><svg viewBox="0 0 48 41" fill="none" id="social-vk"><path fill-rule="evenodd" clip-rule="evenodd" d="M35.12 14.8c.16-.54 0-.94-.8-.94H31.7c-.67 0-.98.34-1.15.73 0 0-1.33 3.2-3.22 5.27-.61.6-.9.8-1.23.8-.16 0-.41-.2-.41-.75v-5.1c0-.66-.19-.95-.74-.95h-4.13c-.42 0-.67.3-.67.59 0 .62.95.76 1.04 2.51v3.8c0 .83-.15.98-.48.98-.9 0-3.06-3.2-4.34-6.88-.25-.72-.5-1-1.18-1h-2.62c-.75 0-.9.34-.9.73 0 .68.89 4.07 4.14 8.55 2.17 3.06 5.23 4.72 8 4.72 1.68 0 1.88-.37 1.88-1v-2.32c0-.74.16-.88.7-.88.38 0 1.05.19 2.6 1.66 1.79 1.75 2.08 2.54 3.08 2.54h2.63c.75 0 1.12-.37.9-1.1-.23-.72-1.08-1.77-2.2-3.02-.62-.71-1.54-1.48-1.82-1.86-.39-.5-.28-.71 0-1.15 0 0 3.2-4.42 3.54-5.93Z" fill="#83B3D3"></path></svg><svg viewBox="0 0 48 41" fill="none" id="social-youtube"><path d="M31.94 12.36H16.51c-1.86 0-3.18 1.59-3.18 3.4v10.09c0 1.91 1.32 3.5 3.18 3.5h15.65c1.64 0 3.17-1.59 3.17-3.4v-10.2c-.22-1.8-1.53-3.4-3.39-3.4ZM20.99 24.89v-8.07l7.34 4.04-7.34 4.03Z" fill="#83B3D3"></path></svg><svg viewBox="0 0 76 76" id="souvenirs"><path d="M67.1 22.5H42.3c13.8-6.9 14.9-11.3 14.4-13.7-1.2-4-5.7-7-10-5.4-5.6 2.1-7.1 10.4-8.6 16.4-2-6.1-3.8-13.8-8.2-17.8-1.3-1.1-3.1-2.3-5.8-2-4 .4-9.8 5.4-7.5 11 2.3 5.4 9.7 8.8 14.6 11.5H8.9A2.9 2.9 0 0 0 6 25.4v11.3c0 1.6 1.3 2.9 2.9 2.9h.3V76H67V39.6h.1c1.6 0 2.9-1.3 2.9-2.9V25.4c0-1.6-1.3-2.9-2.9-2.9zM48.4 5.9c2.1-.3 5 1.3 5.3 3.2.4 2.8-3.4 5.3-5.1 6.4-2.5 1.7-4.9 2.6-7.3 4.1.9-3.7 2.5-13 7.1-13.7zm-22.9 10c-2.2-1.5-6.5-4.4-6.4-7.8.1-3.6 5.7-6.6 8.8-3.9 3.9 3.4 5.7 11.1 7.1 16.6-3.2-1.5-6.3-2.8-9.5-4.9zm6 57.1H12.1V39.6h19.4V73zm0-36.5H9v-11h22.5v11zm10.2 0V73h-7.2V25.6h7.2v10.9zM64 73H44.6V39.6H64V73zm2.9-36.5H44.6v-11h22.3v11z"></path></svg><svg viewBox="0 0 24 17" fill="none" id="star"><path d="m9 0 2.1 6.5H18l-5.6 4 2.2 6.5L9 13l-5.6 4 2.2-6.5-5.6-4h6.9L9 0Z" fill="#83B3D3"></path></svg><svg viewBox="0 0 16 14" fill="none" id="view-list"><path d="M2 0H0v2h2V0Z" fill="black"></path><path d="M16 0H4v2h12V0Z" fill="black"></path><path d="M2 4H0v2h2V4Z" fill="black"></path><path d="M16 4H4v2h12V4Z" fill="black"></path><path d="M2 8H0v2h2V8Z" fill="black"></path><path d="M16 8H4v2h12V8Z" fill="black"></path><path d="M2 12H0v2h2v-2Z" fill="black"></path><path d="M16 12H4v2h12v-2Z" fill="black"></path></svg><svg viewBox="0 0 16 14" fill="none" id="view-slideshow"><path d="M16 12H0v2h16v-2Z" fill="black"></path><path d="M14 2v6H2V2h12Zm2-2H0v10h16V0Z" fill="black"></path></svg><svg viewBox="0 0 16 14" fill="none" id="view-tiles"><path d="M4 0H0v6h4V0Z" fill="black"></path><path d="M16 0h-4v6h4V0Z" fill="black"></path><path d="M10 0H6v6h4V0Z" fill="black"></path><path d="M4 8H0v6h4V8Z" fill="black"></path><path d="M16 8h-4v6h4V8Z" fill="black"></path><path d="M10 8H6v6h4V8Z" fill="black"></path></svg></svg>