<?xml version="1.0" encoding="utf-8"?><svg viewBox="0 0 84 84" xmlns="http://www.w3.org/2000/svg" xmlns:xlink="http://www.w3.org/1999/xlink"><style>:root>svg{display:none}:root>svg:target{display:block}</style><svg viewBox="0 0 20 20" id="cross" xmlns="http://www.w3.org/2000/svg"><path d="M17 4.3L15.7 3 10 8.7 4.3 3 3 4.3 8.7 10 3 15.7 4.3 17l5.7-5.7 5.7 5.7 1.3-1.3-5.7-5.7L17 4.3z"/></svg><svg viewBox="0 0 20 20" id="date" xmlns="http://www.w3.org/2000/svg"><path d="M7.75 12c.3 0 .5-.2.5-.5s-.2-.5-.5-.5-.5.2-.5.5.2.5.5.5z"/><path d="M17 4h-2V2h-1v2H6V2H5v2H3c-.6 0-1 .4-1 1v11c0 .5.4 1 1 1h14c.5 0 1-.5 1-1V5c0-.6-.5-1-1-1zm0 12H3V9h14v7zM3 8V5h2v2h1V5h8v2h1V5h2v3H3z"/><path d="M10 12c.3 0 .5-.2.5-.5s-.2-.5-.5-.5-.5.2-.5.5.2.5.5.5zM12.25 12c.3 0 .5-.2.5-.5s-.2-.5-.5-.5-.5.2-.5.5.2.5.5.5zM7.75 13c-.3 0-.5.2-.5.5s.2.5.5.5.5-.2.5-.5-.2-.5-.5-.5zM5.5 12c.3 0 .5-.2.5-.5s-.2-.5-.5-.5-.5.2-.5.5.2.5.5.5zM5.5 13c-.3 0-.5.2-.5.5s.2.5.5.5.5-.2.5-.5-.2-.5-.5-.5zM10 13c-.3 0-.5.2-.5.5s.2.5.5.5.5-.2.5-.5-.2-.5-.5-.5zM12.25 13c-.3 0-.5.2-.5.5s.2.5.5.5.5-.2.5-.5-.2-.5-.5-.5zM14.5 12c.3 0 .5-.2.5-.5s-.2-.5-.5-.5-.5.2-.5.5.2.5.5.5zM14.5 13c-.3 0-.5.2-.5.5s.2.5.5.5.5-.2.5-.5-.2-.5-.5-.5z"/></svg><svg viewBox="0 0 20 20" id="favorite" xmlns="http://www.w3.org/2000/svg"><path d="M9.9 19a.9.9 0 01-.8-.4c-5.4-6.1-6.7-7.5-7-7.9A5.4 5.4 0 016.5 2C7.8 2 9 2.5 10 3.3a5.46 5.46 0 019 4.1c0 1.3-.5 2.5-1.3 3.4l-7 7.9c-.2.2-.4.3-.8.3zm-6-9.5c.3.4 3.5 4 6.1 6.9l6.2-7c.5-.5.7-1.2.7-2 0-1.8-1.5-3.3-3.3-3.3-1 0-2 .5-2.7 1.3-.3.3-.6.4-.9.4-.3 0-.6-.2-.8-.4-.7-.8-1.7-1.3-2.7-1.3-1.8 0-3.3 1.5-3.3 3.3-.1.9.3 1.6.7 2.1-.1 0-.1 0 0 0z"/></svg><svg viewBox="0 0 84 84" id="food" xmlns="http://www.w3.org/2000/svg"><path d="M74.9 57.7H9.1C6.8 57.7 5 59.6 5 62v3.5c0 2.4 1.9 4.3 4.1 4.3h.9v1.1c0 5.5 4.3 10.1 9.6 10.1h44.6c5.3 0 9.6-4.5 9.6-10.1v-1.1h.9c2.3 0 4.1-1.9 4.1-4.3V62a4 4 0 00-3.9-4.3zM71 70.9c0 3.9-3 7-6.7 7H19.6c-3.7 0-6.7-3.2-6.7-7v-1.1H71v1.1zm5.1-5.4c0 .7-.6 1.3-1.2 1.3H9c-.7 0-1.2-.6-1.2-1.3V62c0-.7.6-1.3 1.2-1.3h65.8c.7 0 1.2.6 1.2 1.3.1 0 .1 3.5.1 3.5zM20.6 49.4l5.4 4.1 5.3-4.1 5.3 4.1 5.3-4.1 5.4 4.1 5.3-4.1 5.3 4.1 5.4-4.1 5.3 4.1 6.2-4.7-1.7-2.5-4.5 3.4-5.3-4.1-5.4 4.1-5.3-4.1-5.3 4.1-5.4-4.1-5.3 4.1-5.3-4.1-5.3 4.1-5.4-4.1-5.3 4.1-4.5-3.4-1.7 2.5 6.2 4.7 5.3-4.1zM13 42.5h60.8c0-.6.1-1.2.1-1.9v-1.2C73.2 23.7 59.2 11 42 11c-17.3 0-31.3 12.7-32 28.5v1.2c0 .6 0 1.3.1 1.9H13v-.1zM42 14c15.6 0 28.4 11.3 29 25.5H13C13.6 25.4 26.4 14 42 14z"/><path d="M42 28.3c1.05 0 1.9-.9 1.9-2s-.85-2-1.9-2c-1.05 0-1.9.9-1.9 2s.85 2 1.9 2zM34.2 23.2c1.05 0 1.9-.9 1.9-2s-.85-2-1.9-2c-1.05 0-1.9.9-1.9 2s.85 2 1.9 2zM49.7 23.2c1.05 0 1.9-.9 1.9-2s-.85-2-1.9-2c-1.05 0-1.9.9-1.9 2s.85 2 1.9 2z"/></svg><svg viewBox="0 0 84 84" id="house" xmlns="http://www.w3.org/2000/svg"><path fill-rule="evenodd" clip-rule="evenodd" d="M42 8.38L4.44 45.94l2.12 2.12L14 40.62V78h-4v3h65v-3h-5V40.62l7.44 7.44 2.12-2.12L70 36.38V9H56v13.38l-14-14zm17 17l8 8V12h-8v13.38zm8 12.24l-25-25-25 25V78h50V37.62zM34 50v24h16V50H34zm3 21V53h10v18H37zM21 50h3v4h-3v-4zm9 0h-3v4h3v-4zm-9 6h3v4h-3v-4zm9 0h-3v4h3v-4zm24-6h3v4h-3v-4zm9 0h-3v4h3v-4zm-9 6h3v4h-3v-4zm9 0h-3v4h3v-4zM37 36a5 5 0 1110 0 5 5 0 01-10 0zm5-8a8 8 0 100 16 8 8 0 000-16z"/></svg><svg viewBox="0 0 1 9" id="info" xmlns="http://www.w3.org/2000/svg"><g clip-path="url(#fclip0_18711_289)"><path d="M0 9h1V3H0v6z" fill="#fff"/><path d="M1 0H0v1h1V0z"/></g><defs><clipPath id="fclip0_18711_289"><path d="M0 0h1v9H0z"/></clipPath></defs></svg><svg viewBox="0 0 20 20" id="minus" xmlns="http://www.w3.org/2000/svg"><path d="M3 9v2h14V9H3z"/></svg><svg fill="none" viewBox="0 0 16 14" id="mode-list" xmlns="http://www.w3.org/2000/svg"><path d="M2 0H0v2h2V0zM16 0H4v2h12V0zM2 4H0v2h2V4zM16 4H4v2h12V4zM2 8H0v2h2V8zM16 8H4v2h12V8zM2 12H0v2h2v-2zM16 12H4v2h12v-2z" fill="#000"/></svg><svg fill="none" viewBox="0 0 16 14" id="mode-slideshow" xmlns="http://www.w3.org/2000/svg"><path d="M16 12H0v2h16v-2zM14 2v6H2V2h12zm2-2H0v10h16V0z" fill="#000"/></svg><svg fill="none" viewBox="0 0 16 14" id="mode-tile" xmlns="http://www.w3.org/2000/svg"><path d="M4 0H0v6h4V0zM16 0h-4v6h4V0zM10 0H6v6h4V0zM4 8H0v6h4V8zM16 8h-4v6h4V8zM10 8H6v6h4V8z" fill="#000"/></svg><svg viewBox="0 0 20 20" id="plus" xmlns="http://www.w3.org/2000/svg"><path d="M17 9h-6V3H9v6H3v2h6v6h2v-6h6V9z"/></svg><svg viewBox="0 0 20 20" id="search" xmlns="http://www.w3.org/2000/svg"><path d="M19.5 18l-3.7-3.67a8 8 0 001.7-4.87 8 8 0 00-8-7.96c-4.4 0-8 3.68-8 8.06a8 8 0 0012.9 6.26l3.7 3.68 1.4-1.5zm-10-2.48a6 6 0 01-6-5.96 6 6 0 0112 0 6 6 0 01-6 5.96z"/></svg><svg fill="none" viewBox="0 0 67 55" id="sign" xmlns="http://www.w3.org/2000/svg"><path d="M.8.5L33 38.2 65.09.7.8.5z" fill="#23A9E1"/><path d="M25.27 14.63h17.35c-1.3-.8-4.41-4.58-6.01-3.19-.1.1-4.92-5.67-8.03-2.88-2.7 2.48-4-.3-7.02 1.59-3.6 2.39 2 3.68 3.71 4.47zm26.78-3.49l-9.83.1c3.91-4.47 5.62-3.98 9.83-.1z" fill="#fff"/><path d="M61.88 3.58V1.2h2.1l-2.1 2.4zm-49.34 9.35c.1.1 2.4-2.38 6.11-4.87 3.41-2.29 8.63-4.88 14.45-4.88 5.81 0 11.13 2.69 14.54 4.98 3.7 2.39 6.01 4.77 6.11 4.87l-2.5 2.99c-4.52.6-7.73 3.88-12.14 3.18-2.2-.4-2.3-1.59-2.9-2.88-.5-1-1.31-.8-2.31-1.2-.9-.4-1.5-1.1-3.41-.7-1.6.4-1.8 2.9-3.91 2.8-1.1-.1-1.2-1.6-2.81-3.59-4.11-4.87-7.92-4.18-10.53.3L32.89 37.1 12.54 12.93zM4.1 1.2v1.9L2.5 1.2h1.6zm54.06 0h3.2v2.99l-3.2 3.78V1.19zm-4.12 11.35V1.19h3.51v7.37l-3.5 3.98s.1 0 0 0zm-.5-10.35v9.85c-1.1-1.1-2.3-2.1-3.6-2.99l3.6-6.86zm-4.1-.3v6.77c-.51-.3-.91-.7-1.51-1-.7-.4-1.4-.9-2.2-1.3l3.7-4.47zm-4.42-.2v4.28c-1-.5-2.1-1-3.11-1.5l3.1-2.78zm.6-.5h3.71l-3.7 4.58V1.19zm4.31 0h3.61l-3.6 7.07V1.19zm-8.82 0h3.9l-3.5 3.09c-.1 0-.2-.1-.3-.1l-.1-2.99zm-.5.4v2.39c-1-.4-2-.7-3.11-.9l3.1-1.49zm-4.22 0v1.3l-2.2-.3 2.2-1zm-6.81 0l2.2 1c-.8 0-1.5.1-2.2.3V1.6zm-4.12 0l3.11 1.5c-1.1.2-2.1.5-3.1.89v-2.4zm3.61 1.2l-3.3-1.6h3.3v1.6zm3.51-.4l-2.8-1.3h2.8v1.3zm.7-1.2h2.91l-2.9 1.3V1.2zm3.72 0h3.2L37 2.8V1.2zM24.57 4.28l-3.5-3.09h3.9v2.99l-.4.1zm-3.6-2.59l3.1 2.69c-1.1.4-2.1.9-3.1 1.49V1.69zm-4.32.2l3.6 4.48c-1.3.7-2.5 1.49-3.6 2.39V1.89zm-4.21.3l3.6 6.96c-1.3 1-2.5 2-3.6 3.19V2.19zm3.7 5.97l-3.6-7.07h3.6v7.07zm4.32-2.49L16.75 1.1h3.7v4.58zM7.82 7.47l-3.2-3.79V1.2h3.2v6.27zm.6-6.28h3.52v11.15L8.43 8.16V1.19zM33.3 0H.1v14.53L33 54.23l.2-.3 33.09-39V0h-33z" fill="#491213"/><path d="M30.39 45.77l2.6-4.18 2.61 4.18-2.6 4.17-2.61-4.17z" fill="#23A9E1"/><path d="M38.41 30.44c-3.4-1.99-2.6-3.48.2-4.87 1.5-.7 4.81-3.38 6.12-2.49l-6.32 7.36zm-2.3 2.5c-2.01-.1-4.32-.4-6.32.1 1.2.29 4.2 1.18 1.4 1.88 1 1.4 2.6 1.3 3.61.1-.4-.2-.7-.5-1-.7 1.1-.3 2.1-.9 2.3-1.39zm1.2-1.6c-.9-.8-1.9-.8-2.71 0-1.2-2.09-5.42-1.4-7.42-1.7 1.1 2.6 9.63 3.1 10.13 1.7zm-6.82-2.19c-1.6-.5-6.82-.4-3.41-1.79 1.1-.4 6.72.1 3.4 1.8zm2-2.98c-.5-1.1.4-2.4 1.7-1.4 1.21.8-.6 2-1.7 1.4zm-2.9.1c-2.31.7-5.32-.8-1.6-1.5 2.3-.5 4.7.5 1.6 1.5-.1 0 .1 0 0 0zm-2.61-6.17c-.5 1.59-1.5 1.89-1.4 0 .1-2.3 1.6-1.7 3.2-2.59 1.3-.7 2-3.38 4.32-1.8 1 .7 2.2.1 2.5 1.2 0-.1-2.9 6.67-1.3 6.67-3.21 0-1.8-3.78-.6-6.37-1.2.6-3.11 4.28-1.5 4.98-.8 1.1-3.42 2.58-4.72 1.49-1.1-1-.5-2.29-.5-3.58zm-4.01 2.78c-5.62 0-1.8-8.55.1-8.06 2.2.7 1.9 8.16-.1 8.06zm-6.22-8.16c-2.6-.1-1.5-2.58.3-3.08 1.7-.5 5.21 1.1 6.42 2.19-1.8.6-4.11.5-6.12.6-.2-2-.7-1.3-.6.3z" fill="#DC6243"/><path d="M36 25.67c-2.9-2.99 4.32-2.69 5.52-3.78.8.3 7.02-5.37 8.52-4.98-1.1 1.3-3.4 5.28-5.01 5.28-1.3 0-2.6-.2-3.61.7-1.5 1.39-3.91 2.08-5.42 2.78z" fill="#F49774"/><path d="M36.9 22.09c-1.6.9-3.1-2.49-.3-2.2 1.81.2 3.72-.2 5.42.1a5.9 5.9 0 01-5.11 2.1z" fill="#F4B1A4"/><path d="M15.25 20.8c.3.4.6.79.5 1.39 0 .4-.6 1-.2 1.19l1.5-1.8c-.4-.09-3.51-3.77-3.51-4.17l-2.1 1.1c.1.4.8 0 1.2 0 .5 0 .9.4 1.3.7-1.1.89-3.8 3.27-4.11 3.27-.1 0-.7-.4-.7 0 0 .2.6.7.7.8l1.4 1.7c.4-.2-.1-.5.1-.8.1-.2 3.21-2.69 3.92-3.39zm-3.41-4.48c.3-.1.4.3.6 0l-1.6-1.9c-.2-.3-.5-.6-.5 0 .1.4-4.02 3.69-4.22 3.79-.3.1-.5-.3-.7.1L6.82 20c.2.2.3.4.5.6.2.2.1-.4.1-.4-.1-.3.3-.6.6-.8 1-1 3.51-3.08 3.82-3.08zm-5.72-.6c-1.1.3-2.4-.1-2.7-1.3-.4-1.19.4-2.38 1.3-3.08.9-.7 2.3-.6 2.8.5.2.5.1 1.1-.1 1.6-.1.29-.4.59 0 .79.6-.7 1.1-1.4 1.7-2.1-.7-.39-1-1.09-1.5-1.68-.6-.7-1.3-1.4-2.3-1.5-1.9-.3-3.61 1.7-3.81 3.39-.1.9.2 1.79.8 2.58.5.6 1.2 1.1 1.6 1.8.2.1 1.8-.7 2.1-.8.21 0 .1-.1.1-.2 0 0-.5.2 0 0zM31.69 39.2c-.7-.5-2.6-2.99-3-3.48l-.2-.3-.2.1c-.1.1.1.4 0 .6-.5.8-3.72 3.18-3.92 3.38-.4.2-.8-.1-1 .2.5.6 1.8 2.28 2 2.28.3 0 .1-.5.1-.6.1-.2 1.7-1.58 2.31-2.08.2-.2.4.3.6.5.2.3.3.7.2 1-.1.19-.5.59-.2.79.4-.5 1.5-1.8 1.7-2 .2-.2-.4 0-.3-.1-.2.1-.5.2-.7 0-.1 0-.7-.69-.6-.79.3-.2.6-.6 1-.7.6-.1 1 1 1.1 1.4.1.4.1.8-.1 1.1-.1.3-.3.49 0 .59l1.41-1.9c0 .1-.1.1-.2 0 .1.1-.1 0 0 0zm-9.22-8.86c-.7 0-1.4.3-2.01.8a3.52 3.52 0 00-.5 4.78c1.3 1.69 3.4 1.89 5.11.7 1.4-1.2 1.6-3.3.5-4.78-.8-1-2-1.5-3.1-1.5zm1.2 1.4c.9-.1 1.5.8 1.1 1.79-.4 1-1.4 1.99-2.4 2.39-1.2.5-2.01-.5-1.5-1.7.4-.99 1.4-1.99 2.4-2.38.1 0 .2-.1.4-.1zm-2.8-4.58c.3 0 .6.4.8 0l-1.41-1.7c-.4.2 0 .4-.1.6-.2.3-1.7.5-2.1.6.1-.4.6-1.69.8-1.79.4-.3.6.3.8-.1l-1.8-2.09c-.2-.2-.4-.7-.6-.4 0 0 0 1-.1 1.1-.11.2-.61 2.39-1.21 2.89-.3.3-1.5 1.29-1.8 1.39-.3.1-.5-.4-.81 0l1.6 1.89c.1.1.4.6.5.6.3.1 0-.6.1-.7.1-.3 1.61-1.8 2.31-1.9.9-.19 2-.49 3.01-.39-.2 0 .2 0 0 0zm24.26 6.67c.1.4.2.9.1 1.29-.1.6-.6 1.89-1.4 1.5-.8-.4-1.4-1.1-2.11-1.7.5-.6 1-1.1 1.9-.8.2.1.4 0 .2-.2-.3-.2-2-1.29-2.1-1.19-.2.2.3.6.1 1-.1.3-.4.5-.6.8-.5-.4-1.2-.8-.7-1.5.4-.4.8-.8 1.4-.9.4-.1 1.2.3 1.3-.1-.7-.3-1.4-.7-2.1-.99.1.5-2.2 2.89-2.7 3.48-.11.1-.41.4-.41.5 0 .3.4.1.4.1.3-.1 4.41 3.28 4.51 3.58.1.2-.1.4 0 .5 0 0 .1.1.2.1.3-.3 2.91-3.88 3.51-3.98l-1.5-2.39c-.4.2-.1.7 0 .9zm-4.01 4.37c-1.3-.9-3.61.8-4.01 1-.7.3-1.2-.4-.8-1 .3-.5.9-.8 1.5-.8.2 0 .9.1.9 0 .1-.1.1-.1 0-.2-.6-.39-1.1-.79-1.7-1.09-.1.7-.9 1.1-1.3 1.6-.5.6-1.01 1.29-1.01 1.99s.4 1.39 1.1 1.69c.7.4 1.5.1 2.21-.3.4-.3.8-.6 1.2-.8.6-.3 1.5 0 1.3.8-.2.7-.9 1.3-1.6 1.5-.4.1-.8.1-1.2-.1-.3-.1-.6-.5-.8-.1l2.3 1.58c.1-.5.3-.7.7-.99.5-.4.9-.9 1.3-1.4.81-.89 1.11-2.48-.1-3.38zm17.65-27.95c0 .1 0 .1 0 0l-.9 1-.8.99c-.2.2-.3.3 0 .5.5-.3 3.5 4.77 3.3 5.47-.5.2-4.51-3.29-4.61-3.49 0-.1.2-.7-.1-.6-.1 0-.5.6-.6.7l-.6.7c.2.3.3 0 .6 0 .2.1 1.2.9 1.5 1.1-.5 0-1.7.1-1.9.1-.6.1-.3-.4-.7-.6l-1.51 1.79-.9 1v.1c.2.2.1.1.4 0 .3-.1 4.31 3.18 4.41 3.38.2.3-.1.6.3.8l1.2-1.4c.1-.1.1-.1 0-.1-.3-.2-.3.1-.7.1-.3-.1-2.9-2.19-3.8-2.99l5.3-.2c.2 0 .71.6.71.8-.1.2-.3.4 0 .5.3-.4.6-.7.9-1.1l.1-.2c.1 0 .1-.1.1-.2l.1-.1c.3-.3 1.2-1.29 1.1-1.39-.3-.3-.4.3-.8 0-.2-.2-.8-1.2-.9-1.39-.2-.3.4-.6.6-.7.5-.3 2.1-.8 2.31.2 0 .2-.2.4-.1.5 0 0 .1.2.2.1l2.1-2.59-.2-.2c-.5.5-5.51-1.49-5.81-1.79-.1-.2-.1-.8-.3-.8zm-.2 2.58c.8.3 1.5.6 2.3 1l-.6.3c-.2.1-.4.3-.6.5l-1.1-1.8zm-6.62 7.67c-1.1-.1-2.2.4-3 1.29-1.21 1.5-1.11 3.68.4 4.87 1.5 1.2 3.7.9 4.9-.5 1.2-1.49 1.1-3.68-.4-4.87-.5-.4-1.2-.7-1.9-.8zm-1.4 1.59c.6 0 1.3.4 1.7.7.8.5 2.2 1.68 1.5 2.68 0-.1.1-.1-.1.1-.8.8-2.2.1-2.9-.5-.7-.5-2.01-1.69-1.2-2.68.3-.2.6-.3 1-.3zm-3.11 4.27c-1.2-.1-2.41.5-3.31 1.6-.6.8-1.3 1.49-1.9 2.29.2.3.5-.1.8.1.3.2 4.1 3.28 4.1 3.48.1.3-.2.4.1.6.1.1 2.91-3.39 3.21-3.99.4-1.09.1-2.38-.8-3.18.1.1.2.1 0 0-.8-.6-1.5-.9-2.2-.9zm-1.1 1.6h.3c1.4.4 3.4 2.09 2.1 3.58l-.4.4c-.2.2-4.21-2.99-4.01-3.19.4-.5 1.3-.9 2-.8z" fill="#fff"/></svg><svg viewBox="0 0 20 20" id="social-facebook" xmlns="http://www.w3.org/2000/svg"><path d="M12 1C9.8 1 8 2.8 8 5v2H5v4h3v8h4v-8h3V7h-3V5h3V1h-3z"/></svg><svg viewBox="0 0 20 20" id="social-twitter" xmlns="http://www.w3.org/2000/svg"><path d="M12.6 2.2c1.8-.5 3.2.3 3.8 1.2.7-.2 1.4-.5 2.1-.7 0 .9-.6 1.5-.9 1.8.7.1 1.4-.6 1.4-.6-.2 1-1.1 1.8-1.7 2C17.1 12.7 14 17.1 6.7 17h-.5c-.4 0-4.4-.5-5.2-1.9 2.4.2 4.1-.4 5-1.2-1-.3-2.9-.4-3.2-2.9.4.1.6.2 1.3.1-1.3-.8-2.7-1.6-2.6-3.8.3.3 1.1.5 1.4.5-.8-.2-2.1-3.3-1-4.9 1.9 1.9 4 3.6 7.6 3.8.2-2.4 1.2-3.9 3.1-4.5z"/></svg><svg viewBox="0 0 20 20" id="social-youtube" xmlns="http://www.w3.org/2000/svg"><path fill-rule="evenodd" clip-rule="evenodd" d="M17.81 3.42c.86.23 1.54.9 1.77 1.77C20 6.75 20 10 20 10s0 3.26-.42 4.81a2.5 2.5 0 01-1.77 1.77C16.25 17 10 17 10 17s-6.25 0-7.81-.42a2.5 2.5 0 01-1.77-1.77C0 13.26 0 10 0 10s0-3.25.42-4.81a2.5 2.5 0 011.77-1.77C3.75 3 10 3 10 3s6.25 0 7.81.42zM13.2 10L8 13V7l5.2 3z"/></svg><svg viewBox="0 0 84 84" id="souvenir" xmlns="http://www.w3.org/2000/svg"><path d="M71.1 27.5H46.3c13.8-6.9 14.9-11.3 14.4-13.7-1.2-4-5.7-7-10-5.4-5.6 2.1-7.1 10.4-8.6 16.4-2-6.1-3.8-13.8-8.2-17.7-1.3-1.1-3.1-2.3-5.8-2-4 .4-9.8 5.4-7.5 11 2.3 5.4 9.7 8.8 14.6 11.5H12.9a2.9 2.9 0 00-2.9 2.9v11.3c0 1.6 1.3 2.9 2.9 2.9h.3V81H71V44.6h.1c1.6 0 2.9-1.3 2.9-2.9V30.4c0-1.6-1.3-2.9-2.9-2.9zM52.4 10.9c2.1-.3 5 1.3 5.3 3.2.4 2.8-3.4 5.3-5.1 6.4-2.5 1.7-4.9 2.6-7.3 4.1.9-3.7 2.5-13 7.1-13.7zm-22.9 10c-2.2-1.5-6.5-4.4-6.4-7.8.1-3.6 5.7-6.6 8.8-3.9 3.9 3.4 5.7 11.1 7.1 16.6-3.2-1.5-6.3-2.8-9.5-4.9zm6 57.1H16.1V44.6h19.4V78zm0-36.5H13v-11h22.5v11zm10.2 0V78h-7.2V30.6h7.2v10.9zM68 78H48.6V44.6H68V78zm2.9-36.5H48.6v-11h22.3v11z"/></svg><svg fill="none" viewBox="0 0 18 17" id="star" xmlns="http://www.w3.org/2000/svg"><path d="M9 0l2.1 6.5H18l-5.6 4 2.2 6.5L9 13l-5.6 4 2.2-6.5-5.6-4h6.9L9 0z" fill="#83B3D3"/></svg></svg>