<?xml version="1.0" encoding="utf-8"?><svg viewBox="0 0 84 84" xmlns="http://www.w3.org/2000/svg" xmlns:xlink="http://www.w3.org/1999/xlink"><style>:root>svg{display:none}:root>svg:target{display:block}</style><svg viewBox="0 0 20 20" id="arrow-down" xmlns="http://www.w3.org/2000/svg"><path fill-rule="evenodd" clip-rule="evenodd" d="M4.22 7.34a.75.75 0 011.06 0L10 12.06l4.72-4.72a.75.75 0 111.06 1.07l-5.25 5.25a.75.75 0 01-1.06 0L4.22 8.4a.75.75 0 010-1.07z"/></svg><svg viewBox="0 0 5 8" id="arrow-right" xmlns="http://www.w3.org/2000/svg"><path d="M4.8 3.6L1 .2C.8 0 .4 0 .1.2-.2.4-.1.8.1 1l3.3 3L.2 7c-.2.2-.2.6 0 .8 0 .1.3.2.4.2.1 0 .3-.1.4-.2l3.8-3.4c.3-.2.3-.6 0-.8z"/></svg><svg viewBox="0 0 20 20" id="checkbox" xmlns="http://www.w3.org/2000/svg"><path d="M15 5l-6.5 7.4-3.4-3.9L4 9.7l4.5 5.2 7.7-8.6L15 5z"/></svg><svg viewBox="0 0 20 20" id="cross" xmlns="http://www.w3.org/2000/svg"><path d="M17 4.3L15.7 3 10 8.7 4.3 3 3 4.3 8.7 10 3 15.7 4.3 17l5.7-5.7 5.7 5.7 1.3-1.3-5.7-5.7L17 4.3z"/></svg><svg viewBox="0 0 20 20" id="date" xmlns="http://www.w3.org/2000/svg"><path d="M7.75 12c.3 0 .5-.2.5-.5s-.2-.5-.5-.5-.5.2-.5.5.2.5.5.5z"/><path d="M17 4h-2V2h-1v2H6V2H5v2H3c-.6 0-1 .4-1 1v11c0 .5.4 1 1 1h14c.5 0 1-.5 1-1V5c0-.6-.5-1-1-1zm0 12H3V9h14v7zM3 8V5h2v2h1V5h8v2h1V5h2v3H3z"/><path d="M10 12c.3 0 .5-.2.5-.5s-.2-.5-.5-.5-.5.2-.5.5.2.5.5.5zM12.25 12c.3 0 .5-.2.5-.5s-.2-.5-.5-.5-.5.2-.5.5.2.5.5.5zM7.75 13c-.3 0-.5.2-.5.5s.2.5.5.5.5-.2.5-.5-.2-.5-.5-.5zM5.5 12c.3 0 .5-.2.5-.5s-.2-.5-.5-.5-.5.2-.5.5.2.5.5.5zM5.5 13c-.3 0-.5.2-.5.5s.2.5.5.5.5-.2.5-.5-.2-.5-.5-.5zM10 13c-.3 0-.5.2-.5.5s.2.5.5.5.5-.2.5-.5-.2-.5-.5-.5zM12.25 13c-.3 0-.5.2-.5.5s.2.5.5.5.5-.2.5-.5-.2-.5-.5-.5zM14.5 12c.3 0 .5-.2.5-.5s-.2-.5-.5-.5-.5.2-.5.5.2.5.5.5zM14.5 13c-.3 0-.5.2-.5.5s.2.5.5.5.5-.2.5-.5-.2-.5-.5-.5z"/></svg><svg viewBox="0 0 20 20" id="favorite" xmlns="http://www.w3.org/2000/svg"><path d="M9.9 19a.9.9 0 01-.8-.4c-5.4-6.1-6.7-7.5-7-7.9A5.4 5.4 0 016.5 2C7.8 2 9 2.5 10 3.3a5.46 5.46 0 019 4.1c0 1.3-.5 2.5-1.3 3.4l-7 7.9c-.2.2-.4.3-.8.3zm-6-9.5c.3.4 3.5 4 6.1 6.9l6.2-7c.5-.5.7-1.2.7-2 0-1.8-1.5-3.3-3.3-3.3-1 0-2 .5-2.7 1.3-.3.3-.6.4-.9.4-.3 0-.6-.2-.8-.4-.7-.8-1.7-1.3-2.7-1.3-1.8 0-3.3 1.5-3.3 3.3-.1.9.3 1.6.7 2.1-.1 0-.1 0 0 0z"/></svg><svg viewBox="0 0 84 84" id="food" xmlns="http://www.w3.org/2000/svg"><path d="M74.9 57.7H9.1C6.8 57.7 5 59.6 5 62v3.5c0 2.4 1.9 4.3 4.1 4.3h.9v1.1c0 5.5 4.3 10.1 9.6 10.1h44.6c5.3 0 9.6-4.5 9.6-10.1v-1.1h.9c2.3 0 4.1-1.9 4.1-4.3V62a4 4 0 00-3.9-4.3zM71 70.9c0 3.9-3 7-6.7 7H19.6c-3.7 0-6.7-3.2-6.7-7v-1.1H71v1.1zm5.1-5.4c0 .7-.6 1.3-1.2 1.3H9c-.7 0-1.2-.6-1.2-1.3V62c0-.7.6-1.3 1.2-1.3h65.8c.7 0 1.2.6 1.2 1.3.1 0 .1 3.5.1 3.5zM20.6 49.4l5.4 4.1 5.3-4.1 5.3 4.1 5.3-4.1 5.4 4.1 5.3-4.1 5.3 4.1 5.4-4.1 5.3 4.1 6.2-4.7-1.7-2.5-4.5 3.4-5.3-4.1-5.4 4.1-5.3-4.1-5.3 4.1-5.4-4.1-5.3 4.1-5.3-4.1-5.3 4.1-5.4-4.1-5.3 4.1-4.5-3.4-1.7 2.5 6.2 4.7 5.3-4.1zM13 42.5h60.8c0-.6.1-1.2.1-1.9v-1.2C73.2 23.7 59.2 11 42 11c-17.3 0-31.3 12.7-32 28.5v1.2c0 .6 0 1.3.1 1.9H13v-.1zM42 14c15.6 0 28.4 11.3 29 25.5H13C13.6 25.4 26.4 14 42 14z"/><path d="M42 28.3c1.05 0 1.9-.9 1.9-2s-.85-2-1.9-2c-1.05 0-1.9.9-1.9 2s.85 2 1.9 2zM34.2 23.2c1.05 0 1.9-.9 1.9-2s-.85-2-1.9-2c-1.05 0-1.9.9-1.9 2s.85 2 1.9 2zM49.7 23.2c1.05 0 1.9-.9 1.9-2s-.85-2-1.9-2c-1.05 0-1.9.9-1.9 2s.85 2 1.9 2z"/></svg><svg viewBox="0 0 84 84" id="house" xmlns="http://www.w3.org/2000/svg"><path fill-rule="evenodd" clip-rule="evenodd" d="M42 8.38L4.44 45.94l2.12 2.12L14 40.62V78h-4v3h65v-3h-5V40.62l7.44 7.44 2.12-2.12L70 36.38V9H56v13.38l-14-14zm17 17l8 8V12h-8v13.38zm8 12.24l-25-25-25 25V78h50V37.62zM34 50v24h16V50H34zm3 21V53h10v18H37zM21 50h3v4h-3v-4zm9 0h-3v4h3v-4zm-9 6h3v4h-3v-4zm9 0h-3v4h3v-4zm24-6h3v4h-3v-4zm9 0h-3v4h3v-4zm-9 6h3v4h-3v-4zm9 0h-3v4h3v-4zM37 36a5 5 0 1110 0 5 5 0 01-10 0zm5-8a8 8 0 100 16 8 8 0 000-16z"/></svg><svg viewBox="0 0 12 12" id="house-mini" xmlns="http://www.w3.org/2000/svg"><path d="M6 0L0 5.8V12h12V5.8L6 0zm5 11H1V6.2l5-4.8 5 4.8V11z"/><path d="M4 10h1V7.5h2V10h1V6.5H4V10z"/></svg><svg viewBox="0 0 1 9" id="info" xmlns="http://www.w3.org/2000/svg"><g clip-path="url(#jclip0_18711_289)"><path d="M0 9h1V3H0v6z" fill="#fff"/><path d="M1 0H0v1h1V0z"/></g><defs><clipPath id="jclip0_18711_289"><path d="M0 0h1v9H0z"/></clipPath></defs></svg><svg viewBox="0 0 20 20" id="minus" xmlns="http://www.w3.org/2000/svg"><path d="M3 9v2h14V9H3z"/></svg><svg fill="none" viewBox="0 0 16 14" id="mode-list" xmlns="http://www.w3.org/2000/svg"><path d="M2 0H0v2h2V0zM16 0H4v2h12V0zM2 4H0v2h2V4zM16 4H4v2h12V4zM2 8H0v2h2V8zM16 8H4v2h12V8zM2 12H0v2h2v-2zM16 12H4v2h12v-2z" fill="#000"/></svg><svg fill="none" viewBox="0 0 16 14" id="mode-slideshow" xmlns="http://www.w3.org/2000/svg"><path d="M16 12H0v2h16v-2zM14 2v6H2V2h12zm2-2H0v10h16V0z" fill="#000"/></svg><svg fill="none" viewBox="0 0 16 14" id="mode-tile" xmlns="http://www.w3.org/2000/svg"><path d="M4 0H0v6h4V0zM16 0h-4v6h4V0zM10 0H6v6h4V0zM4 8H0v6h4V8zM16 8h-4v6h4V8zM10 8H6v6h4V8z" fill="#000"/></svg><svg viewBox="0 0 20 20" id="plus" xmlns="http://www.w3.org/2000/svg"><path d="M17 9h-6V3H9v6H3v2h6v6h2v-6h6V9z"/></svg><svg viewBox="0 0 20 20" id="radio" xmlns="http://www.w3.org/2000/svg"><path d="M5 10a5 5 0 1110 0 5 5 0 01-10 0z"/></svg><svg viewBox="0 0 20 20" id="search" xmlns="http://www.w3.org/2000/svg"><path d="M19.5 18l-3.7-3.67a8 8 0 001.7-4.87 8 8 0 00-8-7.96c-4.4 0-8 3.68-8 8.06a8 8 0 0012.9 6.26l3.7 3.68 1.4-1.5zm-10-2.48a6 6 0 01-6-5.96 6 6 0 0112 0 6 6 0 01-6 5.96z"/></svg><svg viewBox="0 0 20 20" id="social-facebook" xmlns="http://www.w3.org/2000/svg"><path d="M12 1C9.8 1 8 2.8 8 5v2H5v4h3v8h4v-8h3V7h-3V5h3V1h-3z"/></svg><svg viewBox="0 0 20 20" id="social-twitter" xmlns="http://www.w3.org/2000/svg"><path d="M12.6 2.2c1.8-.5 3.2.3 3.8 1.2.7-.2 1.4-.5 2.1-.7 0 .9-.6 1.5-.9 1.8.7.1 1.4-.6 1.4-.6-.2 1-1.1 1.8-1.7 2C17.1 12.7 14 17.1 6.7 17h-.5c-.4 0-4.4-.5-5.2-1.9 2.4.2 4.1-.4 5-1.2-1-.3-2.9-.4-3.2-2.9.4.1.6.2 1.3.1-1.3-.8-2.7-1.6-2.6-3.8.3.3 1.1.5 1.4.5-.8-.2-2.1-3.3-1-4.9 1.9 1.9 4 3.6 7.6 3.8.2-2.4 1.2-3.9 3.1-4.5z"/></svg><svg viewBox="0 0 20 20" id="social-youtube" xmlns="http://www.w3.org/2000/svg"><path fill-rule="evenodd" clip-rule="evenodd" d="M17.81 3.42c.86.23 1.54.9 1.77 1.77C20 6.75 20 10 20 10s0 3.26-.42 4.81a2.5 2.5 0 01-1.77 1.77C16.25 17 10 17 10 17s-6.25 0-7.81-.42a2.5 2.5 0 01-1.77-1.77C0 13.26 0 10 0 10s0-3.25.42-4.81a2.5 2.5 0 011.77-1.77C3.75 3 10 3 10 3s6.25 0 7.81.42zM13.2 10L8 13V7l5.2 3z"/></svg><svg viewBox="0 0 84 84" id="souvenir" xmlns="http://www.w3.org/2000/svg"><path d="M71.1 27.5H46.3c13.8-6.9 14.9-11.3 14.4-13.7-1.2-4-5.7-7-10-5.4-5.6 2.1-7.1 10.4-8.6 16.4-2-6.1-3.8-13.8-8.2-17.7-1.3-1.1-3.1-2.3-5.8-2-4 .4-9.8 5.4-7.5 11 2.3 5.4 9.7 8.8 14.6 11.5H12.9a2.9 2.9 0 00-2.9 2.9v11.3c0 1.6 1.3 2.9 2.9 2.9h.3V81H71V44.6h.1c1.6 0 2.9-1.3 2.9-2.9V30.4c0-1.6-1.3-2.9-2.9-2.9zM52.4 10.9c2.1-.3 5 1.3 5.3 3.2.4 2.8-3.4 5.3-5.1 6.4-2.5 1.7-4.9 2.6-7.3 4.1.9-3.7 2.5-13 7.1-13.7zm-22.9 10c-2.2-1.5-6.5-4.4-6.4-7.8.1-3.6 5.7-6.6 8.8-3.9 3.9 3.4 5.7 11.1 7.1 16.6-3.2-1.5-6.3-2.8-9.5-4.9zm6 57.1H16.1V44.6h19.4V78zm0-36.5H13v-11h22.5v11zm10.2 0V78h-7.2V30.6h7.2v10.9zM68 78H48.6V44.6H68V78zm2.9-36.5H48.6v-11h22.3v11z"/></svg><svg fill="none" viewBox="0 0 18 17" id="star" xmlns="http://www.w3.org/2000/svg"><path d="M9 0l2.1 6.5H18l-5.6 4 2.2 6.5L9 13l-5.6 4 2.2-6.5-5.6-4h6.9L9 0z" fill="#83B3D3"/></svg></svg>